<?xml version="1.0" encoding="UTF-8"?>
<svg width="20" height="20" viewBox="0 0 20 20" xmlns="http://www.w3.org/2000/svg">
    <!-- Twitter Logo -->
    <path d="M20 3.8c-.7.3-1.5.5-2.3.6.8-.5 1.4-1.3 1.7-2.2-.8.5-1.6.8-2.5 1-.7-.8-1.8-1.3-3-1.3-2.3 0-4.1 1.8-4.1 4.1 0 .3 0 .6.1.9-3.4-.2-6.4-1.8-8.4-4.3-.4.6-.6 1.3-.6 2.1 0 1.4.7 2.7 1.8 3.4-.7 0-1.3-.2-1.9-.5v.1c0 2 1.4 3.6 3.3 4-.3.1-.7.1-1 .1-.3 0-.5 0-.8-.1.5 1.6 2 2.8 3.8 2.8-1.4 1.1-3.1 1.7-5 1.7-.3 0-.6 0-.9-.1 1.8 1.2 4 1.8 6.3 1.8 7.5 0 11.6-6.2 11.6-11.6v-.5c.8-.6 1.5-1.3 2-2.2z" fill="currentColor"/>
</svg> 