<?xml version="1.0" encoding="UTF-8"?>
<svg width="600" height="400" viewBox="0 0 600 400" xmlns="http://www.w3.org/2000/svg">
    <!-- 背景 -->
    <rect width="600" height="400" fill="#f8fafc"/>
    
    <!-- 购物车图标 -->
    <g transform="translate(250, 150)">
        <path d="M100,0 C44.8,0 0,44.8 0,100 C0,155.2 44.8,200 100,200 C155.2,200 200,155.2 200,100 C200,44.8 155.2,0 100,0 Z" fill="#e2e8f0"/>
        <path d="M100,20 C56.8,20 20,56.8 20,100 C20,143.2 56.8,180 100,180 C143.2,180 180,143.2 180,100 C180,56.8 143.2,20 100,20 Z" fill="#ffffff"/>
        <path d="M70,80 L130,80 L130,120 L70,120 Z" fill="#3b82f6"/>
        <path d="M80,60 L120,60 L120,80 L80,80 Z" fill="#60a5fa"/>
        <path d="M90,40 L110,40 L110,60 L90,60 Z" fill="#93c5fd"/>
    </g>
    
    <!-- 装饰元素 -->
    <circle cx="100" cy="100" r="20" fill="#3b82f6" opacity="0.2"/>
    <circle cx="500" cy="300" r="30" fill="#60a5fa" opacity="0.2"/>
    <circle cx="400" cy="100" r="25" fill="#93c5fd" opacity="0.2"/>
</svg> 